<svg width="51" height="51" viewBox="0 0 51 51" fill="none" xmlns="http://www.w3.org/2000/svg">
<path opacity="0.2" d="M45.6437 21.2672L36.1319 29.4703L39.0382 41.734C39.115 42.0492 39.0967 42.38 38.9855 42.6848C38.8744 42.9895 38.6754 43.2545 38.4137 43.4462C38.152 43.6378 37.8393 43.7476 37.5152 43.7617C37.1911 43.7757 36.8702 43.6934 36.5929 43.525L25.9054 36.9508L15.2179 43.5231C14.9406 43.6914 14.6196 43.7738 14.2955 43.7597C13.9714 43.7457 13.6588 43.6359 13.3971 43.4442C13.1354 43.2525 12.9364 42.9876 12.8252 42.6828C12.7141 42.3781 12.6957 42.0472 12.7726 41.732L15.6788 29.4684L6.1671 21.2652C5.92458 21.0523 5.74974 20.773 5.66415 20.4618C5.57856 20.1506 5.58597 19.8212 5.68547 19.5142C5.78497 19.2072 5.9722 18.936 6.22404 18.7342C6.47589 18.5324 6.78133 18.4087 7.10265 18.3785L19.5851 17.3629L24.3937 5.72228C24.5162 5.42196 24.7255 5.16497 24.9947 4.98406C25.264 4.80316 25.581 4.70654 25.9054 4.70654C26.2297 4.70654 26.5468 4.80316 26.816 4.98406C27.0853 5.16497 27.2945 5.42196 27.4171 5.72228L32.2257 17.3629L44.7081 18.3785C45.0299 18.4084 45.3358 18.5319 45.5881 18.7339C45.8403 18.9358 46.0278 19.2073 46.1274 19.5147C46.227 19.8221 46.2342 20.152 46.1482 20.4635C46.0622 20.7749 45.8868 21.0544 45.6437 21.2672Z" fill="#FFF71C"/>
<path d="M47.6202 19.0154C47.4248 18.4148 47.0561 17.8855 46.5605 17.4942C46.0649 17.1028 45.4645 16.8669 44.835 16.8161L33.3116 15.8864L28.8624 5.12668C28.6218 4.54039 28.2122 4.03889 27.6859 3.68594C27.1595 3.33299 26.5401 3.14453 25.9063 3.14453C25.2726 3.14453 24.6531 3.33299 24.1268 3.68594C23.6004 4.03889 23.1909 4.54039 22.9503 5.12668L18.505 15.8845L6.97566 16.8161C6.34514 16.8695 5.74439 17.1077 5.24865 17.5009C4.75292 17.8942 4.38426 18.4249 4.18886 19.0268C3.99346 19.6286 3.98001 20.2747 4.1502 20.8842C4.32039 21.4936 4.66664 22.0393 5.14558 22.4529L13.9346 30.0368L11.2569 41.3767C11.1071 41.9927 11.1438 42.6394 11.3623 43.2346C11.5807 43.8298 11.9711 44.3467 12.4838 44.7196C12.9965 45.0925 13.6085 45.3047 14.242 45.3292C14.8755 45.3537 15.5021 45.1894 16.0421 44.8572L25.9053 38.7868L35.7745 44.8572C36.3147 45.1855 36.9399 45.3466 37.5715 45.3203C38.2031 45.2939 38.8127 45.0813 39.3237 44.7092C39.8347 44.3371 40.2241 43.8221 40.443 43.2291C40.6619 42.6361 40.7005 41.9916 40.5538 41.3767L37.8663 30.0349L46.6553 22.4509C47.1382 22.0381 47.4876 21.4912 47.6593 20.8796C47.8311 20.268 47.8175 19.6192 47.6202 19.0154ZM44.6241 20.0837L35.1124 28.2868C34.8955 28.4738 34.7341 28.7168 34.6459 28.9892C34.5577 29.2617 34.5461 29.5532 34.6124 29.8318L37.5186 42.0974C37.5261 42.1143 37.5269 42.1334 37.5207 42.1509C37.5145 42.1683 37.5019 42.1827 37.4854 42.1911C37.4503 42.2185 37.4405 42.2126 37.4112 42.1911L26.7237 35.6189C26.4776 35.4675 26.1943 35.3874 25.9053 35.3874C25.6164 35.3874 25.3331 35.4675 25.087 35.6189L14.3995 42.195C14.3702 42.2126 14.3624 42.2185 14.3253 42.195C14.3088 42.1866 14.2961 42.1722 14.29 42.1548C14.2838 42.1373 14.2845 42.1182 14.2921 42.1013L17.1983 29.8357C17.2645 29.5571 17.2529 29.2656 17.1648 28.9932C17.0766 28.7207 16.9152 28.4777 16.6983 28.2907L7.18659 20.0876C7.16316 20.0681 7.14167 20.0505 7.1612 19.99C7.18073 19.9294 7.19636 19.9372 7.22566 19.9333L19.71 18.9255C19.9964 18.9009 20.2704 18.7979 20.502 18.6277C20.7335 18.4574 20.9137 18.2266 21.0225 17.9607L25.8311 6.31809C25.8468 6.28488 25.8526 6.26926 25.8995 6.26926C25.9464 6.26926 25.9522 6.28488 25.9678 6.31809L30.7882 17.9607C30.8981 18.2267 31.0793 18.4573 31.312 18.6269C31.5446 18.7964 31.8196 18.8984 32.1065 18.9216L44.5909 19.9294C44.6202 19.9294 44.6378 19.9294 44.6553 19.9861C44.6729 20.0427 44.6553 20.0642 44.6241 20.0837Z" fill="#FFF71C"/>
</svg>
